<mxfile host="app.diagrams.net" modified="2024-04-02T12:30:44.717Z" agent="Mozilla/5.0 (Windows NT 10.0; Win64; x64) AppleWebKit/537.36 (KHTML, like Gecko) Chrome/123.0.0.0 Safari/537.36" etag="mwk4Uqlq4DMIk6FLdp50" version="24.2.1" type="device">
  <diagram name="Page-1" id="bSu5htG5t5r1SC98kr3Y">
    <mxGraphModel dx="1674" dy="738" grid="1" gridSize="10" guides="1" tooltips="1" connect="1" arrows="1" fold="1" page="1" pageScale="1" pageWidth="827" pageHeight="1169" math="0" shadow="0">
      <root>
        <mxCell id="0" />
        <mxCell id="1" parent="0" />
        <mxCell id="h6SmbUNFur_OalH76pxs-1" value="" style="rounded=0;whiteSpace=wrap;html=1;rotation=90;movable=0;resizable=0;rotatable=0;deletable=0;editable=0;locked=1;connectable=0;" vertex="1" parent="1">
          <mxGeometry x="116.75" y="217.5" width="656.5" height="475" as="geometry" />
        </mxCell>
        <mxCell id="h6SmbUNFur_OalH76pxs-2" value="&lt;b&gt;&lt;font style=&quot;font-size: 18px;&quot;&gt;StudyMate System&lt;/font&gt;&lt;/b&gt;" style="text;html=1;align=center;verticalAlign=middle;whiteSpace=wrap;rounded=0;" vertex="1" parent="1">
          <mxGeometry x="555" y="127.5" width="130" height="90" as="geometry" />
        </mxCell>
        <mxCell id="h6SmbUNFur_OalH76pxs-3" value="Users" style="shape=umlActor;verticalLabelPosition=bottom;verticalAlign=top;html=1;outlineConnect=0;" vertex="1" parent="1">
          <mxGeometry x="80" y="250" width="30" height="60" as="geometry" />
        </mxCell>
        <mxCell id="h6SmbUNFur_OalH76pxs-6" value="Log-in/Sign-up" style="rounded=0;whiteSpace=wrap;html=1;" vertex="1" parent="1">
          <mxGeometry x="250" y="150" width="90" height="40" as="geometry" />
        </mxCell>
        <mxCell id="h6SmbUNFur_OalH76pxs-7" value="Authentication" style="rounded=0;whiteSpace=wrap;html=1;" vertex="1" parent="1">
          <mxGeometry x="424" y="190" width="86" height="40" as="geometry" />
        </mxCell>
        <mxCell id="h6SmbUNFur_OalH76pxs-9" value="" style="endArrow=classic;html=1;rounded=0;entryX=0;entryY=0.5;entryDx=0;entryDy=0;exitX=1;exitY=0.5;exitDx=0;exitDy=0;" edge="1" parent="1" source="h6SmbUNFur_OalH76pxs-6" target="h6SmbUNFur_OalH76pxs-7">
          <mxGeometry relative="1" as="geometry">
            <mxPoint x="340" y="209.66" as="sourcePoint" />
            <mxPoint x="440" y="209.66" as="targetPoint" />
          </mxGeometry>
        </mxCell>
        <mxCell id="h6SmbUNFur_OalH76pxs-10" value="&amp;lt;&amp;lt;include&amp;gt;&amp;gt;" style="edgeLabel;resizable=0;html=1;;align=center;verticalAlign=middle;rotation=0;" connectable="0" vertex="1" parent="h6SmbUNFur_OalH76pxs-9">
          <mxGeometry relative="1" as="geometry">
            <mxPoint x="5" y="-5" as="offset" />
          </mxGeometry>
        </mxCell>
        <mxCell id="h6SmbUNFur_OalH76pxs-14" value="Like Post" style="rounded=0;whiteSpace=wrap;html=1;" vertex="1" parent="1">
          <mxGeometry x="250" y="350" width="90" height="40" as="geometry" />
        </mxCell>
        <mxCell id="h6SmbUNFur_OalH76pxs-15" value="Share Post and Resources" style="rounded=0;whiteSpace=wrap;html=1;" vertex="1" parent="1">
          <mxGeometry x="250" y="300" width="90" height="40" as="geometry" />
        </mxCell>
        <mxCell id="h6SmbUNFur_OalH76pxs-16" value="Join Group" style="rounded=0;whiteSpace=wrap;html=1;" vertex="1" parent="1">
          <mxGeometry x="250" y="200" width="90" height="40" as="geometry" />
        </mxCell>
        <mxCell id="h6SmbUNFur_OalH76pxs-17" value="Create Group" style="rounded=0;whiteSpace=wrap;html=1;" vertex="1" parent="1">
          <mxGeometry x="250" y="250" width="90" height="40" as="geometry" />
        </mxCell>
        <mxCell id="h6SmbUNFur_OalH76pxs-21" value="Information Collection" style="rounded=0;whiteSpace=wrap;html=1;" vertex="1" parent="1">
          <mxGeometry x="530" y="390" width="90" height="70" as="geometry" />
        </mxCell>
        <mxCell id="h6SmbUNFur_OalH76pxs-26" value="Post in group" style="rounded=0;whiteSpace=wrap;html=1;" vertex="1" parent="1">
          <mxGeometry x="250" y="400" width="90" height="40" as="geometry" />
        </mxCell>
        <mxCell id="h6SmbUNFur_OalH76pxs-27" value="Edit Profile" style="rounded=0;whiteSpace=wrap;html=1;" vertex="1" parent="1">
          <mxGeometry x="250" y="450" width="90" height="40" as="geometry" />
        </mxCell>
        <mxCell id="h6SmbUNFur_OalH76pxs-28" value="General Library" style="rounded=0;whiteSpace=wrap;html=1;" vertex="1" parent="1">
          <mxGeometry x="250" y="500" width="90" height="40" as="geometry" />
        </mxCell>
        <mxCell id="h6SmbUNFur_OalH76pxs-33" value="" style="endArrow=classic;html=1;rounded=0;exitX=1;exitY=0.5;exitDx=0;exitDy=0;entryX=0;entryY=0.5;entryDx=0;entryDy=0;" edge="1" parent="1" source="h6SmbUNFur_OalH76pxs-17" target="h6SmbUNFur_OalH76pxs-21">
          <mxGeometry relative="1" as="geometry">
            <mxPoint x="479.9999999999998" y="445" as="sourcePoint" />
            <mxPoint x="414" y="410" as="targetPoint" />
            <Array as="points">
              <mxPoint x="440" y="350" />
            </Array>
          </mxGeometry>
        </mxCell>
        <mxCell id="h6SmbUNFur_OalH76pxs-34" value="&amp;lt;&amp;lt;include&amp;gt;&amp;gt;" style="edgeLabel;resizable=0;html=1;;align=center;verticalAlign=middle;" connectable="0" vertex="1" parent="h6SmbUNFur_OalH76pxs-33">
          <mxGeometry relative="1" as="geometry" />
        </mxCell>
        <mxCell id="h6SmbUNFur_OalH76pxs-35" value="StudyMate Library&lt;div&gt;Database&lt;/div&gt;" style="shape=umlActor;verticalLabelPosition=bottom;verticalAlign=top;html=1;outlineConnect=0;" vertex="1" parent="1">
          <mxGeometry x="743.25" y="460" width="30" height="60" as="geometry" />
        </mxCell>
        <mxCell id="h6SmbUNFur_OalH76pxs-36" value="" style="endArrow=none;html=1;rounded=0;exitX=1;exitY=0.3333333333333333;exitDx=0;exitDy=0;exitPerimeter=0;entryX=0;entryY=0.5;entryDx=0;entryDy=0;" edge="1" parent="1" source="h6SmbUNFur_OalH76pxs-3" target="h6SmbUNFur_OalH76pxs-6">
          <mxGeometry width="50" height="50" relative="1" as="geometry">
            <mxPoint x="110" y="250" as="sourcePoint" />
            <mxPoint x="250" y="210" as="targetPoint" />
          </mxGeometry>
        </mxCell>
        <mxCell id="h6SmbUNFur_OalH76pxs-37" value="" style="endArrow=none;html=1;rounded=0;exitX=1;exitY=0.3333333333333333;exitDx=0;exitDy=0;exitPerimeter=0;entryX=0;entryY=0.5;entryDx=0;entryDy=0;" edge="1" parent="1" source="h6SmbUNFur_OalH76pxs-3" target="h6SmbUNFur_OalH76pxs-17">
          <mxGeometry width="50" height="50" relative="1" as="geometry">
            <mxPoint x="200" y="310" as="sourcePoint" />
            <mxPoint x="250" y="260" as="targetPoint" />
          </mxGeometry>
        </mxCell>
        <mxCell id="h6SmbUNFur_OalH76pxs-38" value="" style="endArrow=none;html=1;rounded=0;exitX=1;exitY=0.3333333333333333;exitDx=0;exitDy=0;exitPerimeter=0;" edge="1" parent="1" source="h6SmbUNFur_OalH76pxs-3">
          <mxGeometry width="50" height="50" relative="1" as="geometry">
            <mxPoint x="200" y="360" as="sourcePoint" />
            <mxPoint x="250" y="310" as="targetPoint" />
          </mxGeometry>
        </mxCell>
        <mxCell id="h6SmbUNFur_OalH76pxs-39" value="" style="endArrow=none;html=1;rounded=0;exitX=1;exitY=0.3333333333333333;exitDx=0;exitDy=0;exitPerimeter=0;" edge="1" parent="1" source="h6SmbUNFur_OalH76pxs-3">
          <mxGeometry width="50" height="50" relative="1" as="geometry">
            <mxPoint x="200" y="410" as="sourcePoint" />
            <mxPoint x="250" y="360" as="targetPoint" />
          </mxGeometry>
        </mxCell>
        <mxCell id="h6SmbUNFur_OalH76pxs-40" value="" style="endArrow=none;html=1;rounded=0;exitX=1;exitY=0.3333333333333333;exitDx=0;exitDy=0;exitPerimeter=0;" edge="1" parent="1" source="h6SmbUNFur_OalH76pxs-3">
          <mxGeometry width="50" height="50" relative="1" as="geometry">
            <mxPoint x="200" y="460" as="sourcePoint" />
            <mxPoint x="250" y="410" as="targetPoint" />
          </mxGeometry>
        </mxCell>
        <mxCell id="h6SmbUNFur_OalH76pxs-41" value="" style="endArrow=none;html=1;rounded=0;exitX=1;exitY=0.3333333333333333;exitDx=0;exitDy=0;exitPerimeter=0;" edge="1" parent="1" source="h6SmbUNFur_OalH76pxs-3">
          <mxGeometry width="50" height="50" relative="1" as="geometry">
            <mxPoint x="200" y="510" as="sourcePoint" />
            <mxPoint x="250" y="460" as="targetPoint" />
          </mxGeometry>
        </mxCell>
        <mxCell id="h6SmbUNFur_OalH76pxs-42" value="" style="endArrow=none;html=1;rounded=0;exitX=1;exitY=0.3333333333333333;exitDx=0;exitDy=0;exitPerimeter=0;" edge="1" parent="1" source="h6SmbUNFur_OalH76pxs-3">
          <mxGeometry width="50" height="50" relative="1" as="geometry">
            <mxPoint x="200" y="560" as="sourcePoint" />
            <mxPoint x="250" y="510" as="targetPoint" />
          </mxGeometry>
        </mxCell>
        <mxCell id="h6SmbUNFur_OalH76pxs-46" value="" style="endArrow=classic;html=1;rounded=0;exitX=0;exitY=0.75;exitDx=0;exitDy=0;entryX=1;entryY=0.75;entryDx=0;entryDy=0;" edge="1" parent="1" source="h6SmbUNFur_OalH76pxs-7" target="h6SmbUNFur_OalH76pxs-16">
          <mxGeometry relative="1" as="geometry">
            <mxPoint x="470" y="210" as="sourcePoint" />
            <mxPoint x="540" y="250" as="targetPoint" />
          </mxGeometry>
        </mxCell>
        <mxCell id="h6SmbUNFur_OalH76pxs-47" value="&amp;lt;&amp;lt;extend&amp;gt;&amp;gt;&lt;div&gt;sign-up&lt;/div&gt;" style="edgeLabel;resizable=0;html=1;;align=center;verticalAlign=middle;" connectable="0" vertex="1" parent="h6SmbUNFur_OalH76pxs-46">
          <mxGeometry relative="1" as="geometry" />
        </mxCell>
        <mxCell id="h6SmbUNFur_OalH76pxs-50" value="" style="endArrow=classic;html=1;rounded=0;entryX=0;entryY=0.5;entryDx=0;entryDy=0;" edge="1" parent="1" target="h6SmbUNFur_OalH76pxs-21">
          <mxGeometry relative="1" as="geometry">
            <mxPoint x="340" y="409.66" as="sourcePoint" />
            <mxPoint x="440" y="409.66" as="targetPoint" />
          </mxGeometry>
        </mxCell>
        <mxCell id="h6SmbUNFur_OalH76pxs-51" value="&amp;lt;&amp;lt;include&amp;gt;&amp;gt;" style="edgeLabel;resizable=0;html=1;;align=center;verticalAlign=middle;" connectable="0" vertex="1" parent="h6SmbUNFur_OalH76pxs-50">
          <mxGeometry relative="1" as="geometry" />
        </mxCell>
        <mxCell id="h6SmbUNFur_OalH76pxs-52" value="" style="endArrow=classic;html=1;rounded=0;entryX=0;entryY=0.5;entryDx=0;entryDy=0;" edge="1" parent="1" target="h6SmbUNFur_OalH76pxs-21">
          <mxGeometry relative="1" as="geometry">
            <mxPoint x="340" y="459.66" as="sourcePoint" />
            <mxPoint x="440" y="459.66" as="targetPoint" />
          </mxGeometry>
        </mxCell>
        <mxCell id="h6SmbUNFur_OalH76pxs-53" value="&amp;lt;&amp;lt;include&amp;gt;&amp;gt;" style="edgeLabel;resizable=0;html=1;;align=center;verticalAlign=middle;" connectable="0" vertex="1" parent="h6SmbUNFur_OalH76pxs-52">
          <mxGeometry relative="1" as="geometry" />
        </mxCell>
        <mxCell id="h6SmbUNFur_OalH76pxs-54" value="" style="endArrow=none;html=1;rounded=0;entryX=0;entryY=0.3333333333333333;entryDx=0;entryDy=0;entryPerimeter=0;" edge="1" parent="1" target="h6SmbUNFur_OalH76pxs-35">
          <mxGeometry width="50" height="50" relative="1" as="geometry">
            <mxPoint x="340" y="510" as="sourcePoint" />
            <mxPoint x="390" y="460" as="targetPoint" />
          </mxGeometry>
        </mxCell>
        <mxCell id="h6SmbUNFur_OalH76pxs-55" value="Administrator" style="shape=umlActor;verticalLabelPosition=bottom;verticalAlign=top;html=1;outlineConnect=0;" vertex="1" parent="1">
          <mxGeometry x="80" y="540" width="30" height="60" as="geometry" />
        </mxCell>
        <mxCell id="h6SmbUNFur_OalH76pxs-56" value="Check Content" style="rounded=0;whiteSpace=wrap;html=1;" vertex="1" parent="1">
          <mxGeometry x="250" y="565" width="90" height="35" as="geometry" />
        </mxCell>
        <mxCell id="h6SmbUNFur_OalH76pxs-57" value="Detect Inappropriate Behaviour" style="rounded=0;whiteSpace=wrap;html=1;" vertex="1" parent="1">
          <mxGeometry x="250" y="610" width="120" height="40" as="geometry" />
        </mxCell>
        <mxCell id="h6SmbUNFur_OalH76pxs-58" value="Report Consideration" style="rounded=0;whiteSpace=wrap;html=1;" vertex="1" parent="1">
          <mxGeometry x="250" y="660" width="90" height="30" as="geometry" />
        </mxCell>
        <mxCell id="h6SmbUNFur_OalH76pxs-59" value="User/Group Management" style="rounded=0;whiteSpace=wrap;html=1;" vertex="1" parent="1">
          <mxGeometry x="250" y="700" width="90" height="37.5" as="geometry" />
        </mxCell>
        <mxCell id="h6SmbUNFur_OalH76pxs-60" value="" style="endArrow=none;html=1;rounded=0;entryX=0;entryY=0.5;entryDx=0;entryDy=0;exitX=1;exitY=0.3333333333333333;exitDx=0;exitDy=0;exitPerimeter=0;" edge="1" parent="1" source="h6SmbUNFur_OalH76pxs-55" target="h6SmbUNFur_OalH76pxs-56">
          <mxGeometry width="50" height="50" relative="1" as="geometry">
            <mxPoint x="110" y="560" as="sourcePoint" />
            <mxPoint x="160" y="510" as="targetPoint" />
          </mxGeometry>
        </mxCell>
        <mxCell id="h6SmbUNFur_OalH76pxs-61" value="" style="endArrow=none;html=1;rounded=0;exitX=1;exitY=0.3333333333333333;exitDx=0;exitDy=0;exitPerimeter=0;entryX=0;entryY=0.5;entryDx=0;entryDy=0;" edge="1" parent="1" source="h6SmbUNFur_OalH76pxs-55" target="h6SmbUNFur_OalH76pxs-57">
          <mxGeometry width="50" height="50" relative="1" as="geometry">
            <mxPoint x="200" y="670" as="sourcePoint" />
            <mxPoint x="250" y="620" as="targetPoint" />
          </mxGeometry>
        </mxCell>
        <mxCell id="h6SmbUNFur_OalH76pxs-62" value="" style="endArrow=none;html=1;rounded=0;exitX=1;exitY=0.3333333333333333;exitDx=0;exitDy=0;exitPerimeter=0;entryX=0;entryY=0.5;entryDx=0;entryDy=0;" edge="1" parent="1" source="h6SmbUNFur_OalH76pxs-55" target="h6SmbUNFur_OalH76pxs-58">
          <mxGeometry width="50" height="50" relative="1" as="geometry">
            <mxPoint x="200" y="710" as="sourcePoint" />
            <mxPoint x="250" y="660" as="targetPoint" />
          </mxGeometry>
        </mxCell>
        <mxCell id="h6SmbUNFur_OalH76pxs-63" value="" style="endArrow=none;html=1;rounded=0;exitX=1;exitY=0.3333333333333333;exitDx=0;exitDy=0;exitPerimeter=0;" edge="1" parent="1" source="h6SmbUNFur_OalH76pxs-55">
          <mxGeometry width="50" height="50" relative="1" as="geometry">
            <mxPoint x="200" y="760" as="sourcePoint" />
            <mxPoint x="250" y="710" as="targetPoint" />
          </mxGeometry>
        </mxCell>
        <mxCell id="h6SmbUNFur_OalH76pxs-64" value="If user clicks help" style="shape=note;whiteSpace=wrap;html=1;backgroundOutline=1;darkOpacity=0.05;size=7;" vertex="1" parent="1">
          <mxGeometry x="428" y="585" width="90" height="40" as="geometry" />
        </mxCell>
        <mxCell id="h6SmbUNFur_OalH76pxs-67" value="Help Page" style="swimlane;fontStyle=0;childLayout=stackLayout;horizontal=1;startSize=30;horizontalStack=0;resizeParent=1;resizeParentMax=0;resizeLast=0;collapsible=1;marginBottom=0;whiteSpace=wrap;html=1;" vertex="1" parent="1">
          <mxGeometry x="420" y="660" width="106" height="90" as="geometry">
            <mxRectangle x="420" y="660" width="100" height="30" as="alternateBounds" />
          </mxGeometry>
        </mxCell>
        <mxCell id="h6SmbUNFur_OalH76pxs-68" value="Extension Points" style="text;strokeColor=none;fillColor=none;align=left;verticalAlign=middle;spacingLeft=4;spacingRight=4;overflow=hidden;points=[[0,0.5],[1,0.5]];portConstraint=eastwest;rotatable=0;whiteSpace=wrap;html=1;" vertex="1" parent="h6SmbUNFur_OalH76pxs-67">
          <mxGeometry y="30" width="106" height="30" as="geometry" />
        </mxCell>
        <mxCell id="h6SmbUNFur_OalH76pxs-69" value="Ask Questions" style="text;strokeColor=none;fillColor=none;align=left;verticalAlign=middle;spacingLeft=4;spacingRight=4;overflow=hidden;points=[[0,0.5],[1,0.5]];portConstraint=eastwest;rotatable=0;whiteSpace=wrap;html=1;" vertex="1" parent="h6SmbUNFur_OalH76pxs-67">
          <mxGeometry y="60" width="106" height="30" as="geometry" />
        </mxCell>
        <mxCell id="h6SmbUNFur_OalH76pxs-71" value="" style="endArrow=none;dashed=1;html=1;dashPattern=1 3;strokeWidth=2;rounded=0;exitX=0.5;exitY=0;exitDx=0;exitDy=0;entryX=0.5;entryY=1;entryDx=0;entryDy=0;entryPerimeter=0;" edge="1" parent="1" source="h6SmbUNFur_OalH76pxs-67" target="h6SmbUNFur_OalH76pxs-64">
          <mxGeometry width="50" height="50" relative="1" as="geometry">
            <mxPoint x="448" y="675" as="sourcePoint" />
            <mxPoint x="498" y="625" as="targetPoint" />
          </mxGeometry>
        </mxCell>
        <mxCell id="h6SmbUNFur_OalH76pxs-72" value="Call Administrator" style="rounded=0;whiteSpace=wrap;html=1;" vertex="1" parent="1">
          <mxGeometry x="590" y="660" width="80" height="30" as="geometry" />
        </mxCell>
        <mxCell id="h6SmbUNFur_OalH76pxs-73" value="Show Solutions" style="rounded=0;whiteSpace=wrap;html=1;" vertex="1" parent="1">
          <mxGeometry x="590" y="710" width="64" height="31.25" as="geometry" />
        </mxCell>
        <mxCell id="h6SmbUNFur_OalH76pxs-74" value="" style="endArrow=classic;html=1;rounded=0;entryX=0.982;entryY=0.194;entryDx=0;entryDy=0;entryPerimeter=0;exitX=0.034;exitY=0.39;exitDx=0;exitDy=0;exitPerimeter=0;" edge="1" parent="1" source="h6SmbUNFur_OalH76pxs-72" target="h6SmbUNFur_OalH76pxs-67">
          <mxGeometry relative="1" as="geometry">
            <mxPoint x="540" y="610" as="sourcePoint" />
            <mxPoint x="640" y="610" as="targetPoint" />
          </mxGeometry>
        </mxCell>
        <mxCell id="h6SmbUNFur_OalH76pxs-75" value="&lt;font style=&quot;font-size: 8px;&quot;&gt;&amp;lt;&amp;lt;&lt;font style=&quot;&quot;&gt;extend&lt;/font&gt;&amp;gt;&amp;gt;&lt;/font&gt;" style="edgeLabel;resizable=0;html=1;;align=center;verticalAlign=middle;" connectable="0" vertex="1" parent="h6SmbUNFur_OalH76pxs-74">
          <mxGeometry relative="1" as="geometry" />
        </mxCell>
        <mxCell id="h6SmbUNFur_OalH76pxs-76" value="" style="endArrow=classic;html=1;rounded=0;entryX=0;entryY=0.5;entryDx=0;entryDy=0;exitX=1;exitY=0.25;exitDx=0;exitDy=0;" edge="1" parent="1" source="h6SmbUNFur_OalH76pxs-67" target="h6SmbUNFur_OalH76pxs-73">
          <mxGeometry relative="1" as="geometry">
            <mxPoint x="580" y="610" as="sourcePoint" />
            <mxPoint x="680" y="610" as="targetPoint" />
          </mxGeometry>
        </mxCell>
        <mxCell id="h6SmbUNFur_OalH76pxs-77" value="&lt;font style=&quot;font-size: 8px;&quot;&gt;&amp;lt;&amp;lt;&lt;font style=&quot;&quot;&gt;include&lt;/font&gt;&amp;gt;&amp;gt;&lt;/font&gt;" style="edgeLabel;resizable=0;html=1;;align=center;verticalAlign=middle;" connectable="0" vertex="1" parent="h6SmbUNFur_OalH76pxs-76">
          <mxGeometry relative="1" as="geometry" />
        </mxCell>
        <mxCell id="h6SmbUNFur_OalH76pxs-78" value="" style="endArrow=classic;html=1;rounded=0;entryX=0.996;entryY=0.659;entryDx=0;entryDy=0;exitX=0;exitY=0.3333333333333333;exitDx=0;exitDy=0;exitPerimeter=0;entryPerimeter=0;" edge="1" parent="1" source="h6SmbUNFur_OalH76pxs-35" target="h6SmbUNFur_OalH76pxs-56">
          <mxGeometry relative="1" as="geometry">
            <mxPoint x="428" y="550" as="sourcePoint" />
            <mxPoint x="528" y="550" as="targetPoint" />
          </mxGeometry>
        </mxCell>
        <mxCell id="h6SmbUNFur_OalH76pxs-79" value="&amp;lt;&amp;lt;extend&amp;gt;&amp;gt;" style="edgeLabel;resizable=0;html=1;;align=center;verticalAlign=middle;" connectable="0" vertex="1" parent="h6SmbUNFur_OalH76pxs-78">
          <mxGeometry relative="1" as="geometry" />
        </mxCell>
        <mxCell id="h6SmbUNFur_OalH76pxs-80" value="" style="endArrow=classic;html=1;rounded=0;exitX=0;exitY=0.5;exitDx=0;exitDy=0;entryX=1;entryY=0.5;entryDx=0;entryDy=0;" edge="1" parent="1" source="h6SmbUNFur_OalH76pxs-21" target="h6SmbUNFur_OalH76pxs-56">
          <mxGeometry relative="1" as="geometry">
            <mxPoint x="328" y="540" as="sourcePoint" />
            <mxPoint x="428" y="540" as="targetPoint" />
          </mxGeometry>
        </mxCell>
        <mxCell id="h6SmbUNFur_OalH76pxs-81" value="&amp;lt;&amp;lt;extend&amp;gt;&amp;gt;" style="edgeLabel;resizable=0;html=1;;align=center;verticalAlign=middle;" connectable="0" vertex="1" parent="h6SmbUNFur_OalH76pxs-80">
          <mxGeometry relative="1" as="geometry">
            <mxPoint x="-20" y="21" as="offset" />
          </mxGeometry>
        </mxCell>
        <mxCell id="h6SmbUNFur_OalH76pxs-83" value="" style="endArrow=classic;html=1;rounded=0;entryX=1;entryY=0.75;entryDx=0;entryDy=0;" edge="1" parent="1" source="h6SmbUNFur_OalH76pxs-15" target="h6SmbUNFur_OalH76pxs-28">
          <mxGeometry relative="1" as="geometry">
            <mxPoint x="730" y="417.5" as="sourcePoint" />
            <mxPoint x="730" y="217.5" as="targetPoint" />
            <Array as="points">
              <mxPoint x="370" y="320" />
              <mxPoint x="370" y="530" />
            </Array>
          </mxGeometry>
        </mxCell>
        <mxCell id="h6SmbUNFur_OalH76pxs-84" value="&amp;lt;&amp;lt;extend&amp;gt;&amp;gt;" style="edgeLabel;resizable=0;html=1;;align=center;verticalAlign=middle;" connectable="0" vertex="1" parent="h6SmbUNFur_OalH76pxs-83">
          <mxGeometry relative="1" as="geometry">
            <mxPoint x="10" y="-35" as="offset" />
          </mxGeometry>
        </mxCell>
        <mxCell id="h6SmbUNFur_OalH76pxs-86" value="" style="endArrow=none;html=1;rounded=0;exitX=1;exitY=0.3333333333333333;exitDx=0;exitDy=0;exitPerimeter=0;entryX=0;entryY=0.5;entryDx=0;entryDy=0;" edge="1" parent="1" source="h6SmbUNFur_OalH76pxs-3" target="h6SmbUNFur_OalH76pxs-16">
          <mxGeometry width="50" height="50" relative="1" as="geometry">
            <mxPoint x="200" y="267.5" as="sourcePoint" />
            <mxPoint x="250" y="217.5" as="targetPoint" />
          </mxGeometry>
        </mxCell>
        <mxCell id="h6SmbUNFur_OalH76pxs-87" value="&lt;h1 style=&quot;margin-top: 0px;&quot;&gt;Use Case Diagram&amp;nbsp;&lt;/h1&gt;" style="text;html=1;whiteSpace=wrap;overflow=hidden;rounded=0;" vertex="1" parent="1">
          <mxGeometry x="335" y="40" width="220" height="40" as="geometry" />
        </mxCell>
      </root>
    </mxGraphModel>
  </diagram>
</mxfile>
